<?xml version="1.0" encoding="UTF-8"?><svg id="Layer_1" xmlns="http://www.w3.org/2000/svg" viewBox="0 0 200 200"><defs><style>.cls-1{fill:#6b6b6b;}.cls-2{fill:#d0d0ce;}.cls-3{fill:#cfcfce;}</style></defs><rect class="cls-3" width="200" height="200"/><ellipse class="cls-1" cx="100" cy="177.05" rx="52.72" ry="69.62"/><g><circle class="cls-1" cx="100" cy="79.96" r="40.61" transform="translate(-22.99 44.35) rotate(-22.5)"/><path class="cls-2" d="M100,41.34c21.33,0,38.61,17.29,38.61,38.61s-17.29,38.61-38.61,38.61-38.61-17.29-38.61-38.61,17.29-38.61,38.61-38.61m0-4c-23.5,0-42.61,19.12-42.61,42.61s19.12,42.61,42.61,42.61,42.61-19.12,42.61-42.61-19.12-42.61-42.61-42.61h0Z"/></g><circle class="cls-1" cx="61.72" cy="80.05" r="4.92"/><circle class="cls-1" cx="138.61" cy="80.96" r="4.92"/><ellipse class="cls-3" cx="91.02" cy="75.22" rx="5.94" ry="9.75"/><ellipse class="cls-3" cx="108.98" cy="75.22" rx="5.94" ry="9.75"/></svg>